<svg xmlns="http://www.w3.org/2000/svg" id="Capa_1" viewBox="0 0 20 20"><defs><style>.cls-1{font-family:MyriadPro-Regular, 'Myriad Pro';font-size:3.93px;}.cls-1,.cls-2{fill:#fff;}.cls-3{letter-spacing:-.01em;}.cls-4{fill:#ce253a;}</style></defs><g><rect class="cls-4" x=".5" width="19" height="20"></rect><path class="cls-4" d="M19,.5V19.5H1V.5H19m1-1H0V20.5H20V-.5h0Z"></path></g><path class="cls-2" d="M4,2.85c0-.92,.7-1.66,1.56-1.66h3.89v3.33c0,.46,.35,.83,.78,.83h3.11v3.63l-2.3,2.46c-.2,.21-.34,.48-.41,.77l-.37,1.56c-.06,.24-.04,.49,.03,.72H5.56c-.86,0-1.56-.75-1.56-1.66V2.85Zm6.22,1.66V1.19l3.11,3.33h-3.11Zm7.49,3.17c.38,.41,.38,1.06,0,1.47l-.71,.76-1.72-1.85,.71-.76c.38-.41,.99-.41,1.38,0l.35,.37Zm-6.13,4.32l3.14-3.34,1.73,1.84-3.14,3.36c-.1,.11-.23,.18-.36,.22l-1.46,.39c-.13,.03-.27,0-.37-.11-.1-.1-.14-.25-.1-.42l.36-1.54c.03-.15,.1-.28,.2-.41h0Z"></path><text class="cls-1" transform="translate(3.17 18.44) scale(.89 1)"><tspan class="cls-3" x="0" y="0">C</tspan><tspan x="2.23" y="0">otizador</tspan></text></svg>